<mxfile host="app.diagrams.net" agent="Mozilla/5.0 (Windows NT 10.0; Win64; x64; rv:135.0) Gecko/20100101 Firefox/135.0" version="26.0.16">
  <diagram name="Pagina-1" id="AuC0Eepjs35RN8e5JWNE">
    <mxGraphModel dx="934" dy="454" grid="1" gridSize="10" guides="1" tooltips="1" connect="1" arrows="1" fold="1" page="1" pageScale="1" pageWidth="9999" pageHeight="9999" math="0" shadow="0">
      <root>
        <mxCell id="0" />
        <mxCell id="1" parent="0" />
        <mxCell id="coVTbB6gFGEOHuzffBD8-1" value="Movement opportunities" style="text;html=1;align=center;verticalAlign=middle;whiteSpace=wrap;rounded=0;" vertex="1" parent="1">
          <mxGeometry x="100" y="50" width="110" height="30" as="geometry" />
        </mxCell>
        <mxCell id="coVTbB6gFGEOHuzffBD8-2" value="&lt;div&gt;Every X seconds&lt;/div&gt;&lt;div&gt;(fred 3.02, bon 4.97, chi 4.98, fox 5.01)&lt;/div&gt;" style="rounded=0;whiteSpace=wrap;html=1;" vertex="1" parent="1">
          <mxGeometry x="105" y="110" width="100" height="60" as="geometry" />
        </mxCell>
        <mxCell id="coVTbB6gFGEOHuzffBD8-3" value="Generate random number 1-20" style="ellipse;whiteSpace=wrap;html=1;aspect=fixed;" vertex="1" parent="1">
          <mxGeometry x="115" y="220" width="80" height="80" as="geometry" />
        </mxCell>
        <mxCell id="coVTbB6gFGEOHuzffBD8-4" value="" style="endArrow=classic;html=1;rounded=0;exitX=0.5;exitY=1;exitDx=0;exitDy=0;entryX=0.5;entryY=0;entryDx=0;entryDy=0;" edge="1" parent="1" source="coVTbB6gFGEOHuzffBD8-2" target="coVTbB6gFGEOHuzffBD8-3">
          <mxGeometry width="50" height="50" relative="1" as="geometry">
            <mxPoint x="300" y="200" as="sourcePoint" />
            <mxPoint x="350" y="150" as="targetPoint" />
          </mxGeometry>
        </mxCell>
        <mxCell id="coVTbB6gFGEOHuzffBD8-9" style="edgeStyle=orthogonalEdgeStyle;rounded=0;orthogonalLoop=1;jettySize=auto;html=1;exitX=1;exitY=0.5;exitDx=0;exitDy=0;entryX=0;entryY=0.5;entryDx=0;entryDy=0;" edge="1" parent="1" source="coVTbB6gFGEOHuzffBD8-5" target="coVTbB6gFGEOHuzffBD8-8">
          <mxGeometry relative="1" as="geometry" />
        </mxCell>
        <mxCell id="coVTbB6gFGEOHuzffBD8-10" value="No" style="edgeLabel;html=1;align=center;verticalAlign=middle;resizable=0;points=[];" vertex="1" connectable="0" parent="coVTbB6gFGEOHuzffBD8-9">
          <mxGeometry x="-0.3057" y="-1" relative="1" as="geometry">
            <mxPoint as="offset" />
          </mxGeometry>
        </mxCell>
        <mxCell id="coVTbB6gFGEOHuzffBD8-12" style="edgeStyle=orthogonalEdgeStyle;rounded=0;orthogonalLoop=1;jettySize=auto;html=1;exitX=0.5;exitY=1;exitDx=0;exitDy=0;entryX=0.5;entryY=0;entryDx=0;entryDy=0;" edge="1" parent="1" source="coVTbB6gFGEOHuzffBD8-5" target="coVTbB6gFGEOHuzffBD8-11">
          <mxGeometry relative="1" as="geometry" />
        </mxCell>
        <mxCell id="coVTbB6gFGEOHuzffBD8-13" value="Yes" style="edgeLabel;html=1;align=center;verticalAlign=middle;resizable=0;points=[];" vertex="1" connectable="0" parent="coVTbB6gFGEOHuzffBD8-12">
          <mxGeometry x="-0.5586" y="1" relative="1" as="geometry">
            <mxPoint as="offset" />
          </mxGeometry>
        </mxCell>
        <mxCell id="coVTbB6gFGEOHuzffBD8-5" value="Number &amp;lt;= AI?" style="rhombus;whiteSpace=wrap;html=1;" vertex="1" parent="1">
          <mxGeometry x="115" y="330" width="80" height="80" as="geometry" />
        </mxCell>
        <mxCell id="coVTbB6gFGEOHuzffBD8-6" value="" style="endArrow=classic;html=1;rounded=0;exitX=0.5;exitY=1;exitDx=0;exitDy=0;entryX=0.5;entryY=0;entryDx=0;entryDy=0;" edge="1" parent="1" source="coVTbB6gFGEOHuzffBD8-3" target="coVTbB6gFGEOHuzffBD8-5">
          <mxGeometry width="50" height="50" relative="1" as="geometry">
            <mxPoint x="300" y="380" as="sourcePoint" />
            <mxPoint x="350" y="330" as="targetPoint" />
          </mxGeometry>
        </mxCell>
        <mxCell id="coVTbB6gFGEOHuzffBD8-8" value="End" style="whiteSpace=wrap;html=1;aspect=fixed;" vertex="1" parent="1">
          <mxGeometry x="240" y="330" width="80" height="80" as="geometry" />
        </mxCell>
        <mxCell id="coVTbB6gFGEOHuzffBD8-11" value="Move (or Foxy: next stage)" style="ellipse;whiteSpace=wrap;html=1;aspect=fixed;" vertex="1" parent="1">
          <mxGeometry x="115" y="450" width="80" height="80" as="geometry" />
        </mxCell>
        <mxCell id="coVTbB6gFGEOHuzffBD8-15" value="" style="endArrow=classic;html=1;rounded=0;exitX=1;exitY=0;exitDx=0;exitDy=0;" edge="1" parent="1" source="coVTbB6gFGEOHuzffBD8-5">
          <mxGeometry width="50" height="50" relative="1" as="geometry">
            <mxPoint x="320" y="310" as="sourcePoint" />
            <mxPoint x="220" y="300" as="targetPoint" />
          </mxGeometry>
        </mxCell>
        <mxCell id="coVTbB6gFGEOHuzffBD8-16" value="For Foxy: no cams used for 0.83-16.67s?" style="whiteSpace=wrap;html=1;aspect=fixed;" vertex="1" parent="1">
          <mxGeometry x="220" y="220" width="80" height="80" as="geometry" />
        </mxCell>
      </root>
    </mxGraphModel>
  </diagram>
</mxfile>
